<svg width="372" height="322" viewBox="0 0 372 322" fill="none" xmlns="http://www.w3.org/2000/svg">
<g clip-path="url(#clip0_1422_9425)">
<path d="M0 6.16482H96.9597C134.205 6.16482 154.213 27.7514 154.213 57.9687C154.213 78.9355 144.057 94.9705 126.511 102.988V103.608C149.599 110.392 163.447 129.203 163.447 153.869C163.447 185.016 143.129 207.829 104.963 207.829H0V6.16482ZM93.5767 90.6584C112.663 90.6584 123.128 78.942 123.128 62.907C123.128 46.872 114.513 35.1556 92.9646 35.1556H31.3941V90.6584H93.5703H93.5767ZM99.7305 178.851C121.891 178.851 131.125 165.901 131.125 149.866C131.125 132.289 119.739 119.649 100.343 119.649H31.3941V178.857H99.7305V178.851Z" fill="#52C3FF"/>
<path d="M334.787 164.01C321.378 176.811 302.826 184.415 280.93 184.415C235.379 184.415 203.965 151.687 203.965 106.997C203.965 62.3066 235.379 29.5782 280.93 29.5782C302.871 29.5782 321.455 37.2149 334.871 50.0609L356.896 27.9967C337.706 10.4124 311.39 0 280.93 0C216.846 0 171.611 45.3163 171.611 106.997C171.611 168.677 216.846 213.994 280.93 213.994C311.435 213.994 337.777 203.555 356.973 185.919L334.794 164.004L334.787 164.01Z" fill="#52C3FF"/>
<path d="M372 63.5203L278.365 157.329L225.146 104.021H257.5L278.185 124.736L339.285 63.5203H372Z" fill="#52C3FF"/>
</g>
<path d="M5 275.925C5 263.597 12.3782 257.612 23.048 257.612C33.7178 257.612 41.002 263.597 41.002 276.01V276.532H35.3166V275.925C35.3166 266.982 30.3664 262.99 23.0822 262.99C15.798 262.99 10.8479 266.982 10.8479 275.925V301.574H5.0342L5 275.925Z" fill="white"/>
<path d="M45.0032 280.174C45.0032 267.153 54.553 257.612 68.0869 257.612C81.6208 257.612 90.9996 267.153 90.9996 280.174V282.081H50.9879C51.7745 291.023 58.4516 297.359 68.0869 297.359C74.8582 297.359 80.0563 294.58 82.8349 289.664H89.1786C85.887 297.564 78.0642 302.77 68.0955 302.77C54.553 302.736 45.0032 293.186 45.0032 280.174ZM84.9038 276.865C83.5188 268.188 76.7476 262.981 68.0698 262.981C59.3921 262.981 52.4499 268.453 51.1503 276.865H84.9038Z" fill="white"/>
<path d="M96.0181 280.431C96.0181 267.068 105.559 257.612 119.102 257.612C132.644 257.612 142.1 266.897 142.1 280.431V301.608H136.722V291.023C133.687 298.658 126.566 302.736 118.238 302.736C106.184 302.736 96.0181 294.144 96.0181 280.431ZM136.278 280.174C136.278 270.282 129.336 262.99 119.093 262.99C108.851 262.99 101.917 270.282 101.917 280.174C101.917 290.066 108.842 297.384 119.102 297.384C129.361 297.384 136.295 290.066 136.295 280.174H136.278Z" fill="white"/>
<path d="M148.88 280.003C148.88 266.811 158.515 257.612 171.109 257.612C179.265 257.612 185.942 261.434 189.157 267.94V240H194.97V279.918C194.97 293.708 185.335 302.736 172.058 302.736C158.78 302.736 148.88 293.187 148.88 280.003ZM189.148 280.174C189.148 270.282 182.308 262.99 171.964 262.99C161.619 262.99 154.779 270.282 154.779 280.174C154.779 290.066 161.721 297.359 171.964 297.359C182.206 297.359 189.148 290.066 189.148 280.174Z" fill="white"/>
<path d="M203.904 307.25H209.727C211.984 313.064 217.276 315.928 224.389 315.928C233.588 315.928 240.009 311.414 240.009 300.223V293.016C236.974 299.18 231.246 302.471 223.765 302.471C212.309 302.471 203.46 295.538 203.46 280.867V258.741H209.274V280.867C209.274 291.451 215.344 297.111 224.663 297.111C233.982 297.111 240.052 291.383 240.052 280.867V258.741H245.865V300.043C245.865 314.971 236.41 321.049 224.432 321.049C214.66 321.049 206.589 316.535 203.904 307.25Z" fill="white"/>
<path d="M260.964 244.506H288.613C299.24 244.506 304.943 250.653 304.943 259.254C304.943 265.238 302.053 269.787 297.043 272.078V272.257C303.626 274.19 307.576 279.542 307.576 286.561C307.576 295.427 301.788 301.95 290.896 301.95H260.973V244.506H260.964ZM287.647 268.555C293.085 268.555 296.068 265.221 296.068 260.656C296.068 256.09 293.615 252.756 287.468 252.756H269.907V268.555H287.647ZM289.4 293.665C295.718 293.665 298.351 289.981 298.351 285.415C298.351 280.414 295.102 276.814 289.571 276.814H269.907V293.665H289.4Z" fill="#52C3FF"/>
<path d="M356.445 289.442C352.273 293.315 346.75 295.401 341.056 295.256C328.061 295.256 319.101 285.937 319.101 273.215C319.101 260.493 328.095 251.217 341.09 251.217C346.784 251.08 352.307 253.175 356.479 257.048L362.763 250.721C357.291 245.711 349.785 242.753 341.099 242.753C322.82 242.753 309.918 255.654 309.918 273.215C309.918 290.776 322.82 303.677 341.099 303.677C349.793 303.677 357.343 300.702 362.78 295.683L356.445 289.442Z" fill="#52C3FF"/>
<path d="M367.064 260.835L340.355 287.544L325.179 272.36H334.404L340.304 278.259L357.727 260.835H367.064Z" fill="#52C3FF"/>
<defs>
<clipPath id="clip0_1422_9425">
<rect width="372" height="214" fill="white"/>
</clipPath>
</defs>
</svg>
