<svg width="132" height="66" viewBox="0 0 132 66" fill="none" xmlns="http://www.w3.org/2000/svg">
  <g clip-path="url(#clip0)" fill="#fff">
    <path d="M64.5021 4.83205c-.8945-1.34461-2.0297-2.5106-3.3478-3.43869C59.6962.43705 57.9819-.04788 56.2415.00373c-2.0451 0-3.735.46321-5.0696 1.42823-1.2777.95317-2.3969 2.10405-3.3157 3.40974L21.0037 43.0372h15.3338l19.6544-28.0789 7.5116 11.0624c.7073 1.0068 1.4467 2.197 2.2212 3.3486.5633.8428 6.5035 9.3285 9.9216 13.6679h15.0201L64.5021 4.83205z"/>
    <path d="M62.4883 31.3921c-.6977-1.0483-1.3158-2.087-2.0709-3.1676l-4.3841-6.7059-.701 1.1547v20.5083h12.3526v-4.2513c-2.4183-3.5998-4.8238-6.9963-5.1966-7.5382zM109.112 10.0197c-.932-1.95005-2.303-3.6539-4.004-4.97565-1.749-1.38803-3.897-2.42502-6.4395-3.20116-2.542-.77613-5.4358-1.12072-8.6908-1.12072H66.1049c.5436.81156 1.0552 1.42989 1.5125 2.09975l6.2287 9.29748h17.3178c2.0017 0 3.5557.1675 4.6588 1.0274 1.0814.7677 1.7045 2.0337 1.6564 3.3654.0472 1.4125-.566 2.7656-1.6564 3.6552-1.1031.8824-2.6571 1.4525-4.6588 1.4525H80.4586l7.3927 10.5857h2.0624c2.9411.0105 5.8684-.4071 8.6909-1.2399 2.3304-.6649 4.5234-1.7482 6.4714-3.198 1.719-1.284 3.104-2.9679 4.036-4.908.934-2.0025 1.405-4.1929 1.375-6.4055.027-2.2217-.443-4.4211-1.375-6.4345zM23.4518 51.5796v10.4783h-2.5337v-1.6807c-.3159.581-.7691 1.0374-1.3596 1.3694-.5905.3182-1.2635.4772-2.0188.4772-.9064 0-1.7098-.2213-2.4102-.6639-.7004-.4427-1.2428-1.0721-1.6274-1.8882-.3845-.8161-.5767-1.7636-.5767-2.8426 0-1.0789.1922-2.0334.5767-2.8633.3983-.8438.9476-1.494 1.648-1.9504.7004-.4704 1.4969-.7055 2.3896-.7055.7553 0 1.4283.166 2.0188.498.5905.3181 1.0437.7677 1.3596 1.3487v-1.577h2.5337zm-5.2117 8.6108c.8515 0 1.5106-.2974 1.9776-.8922.4669-.5948.7004-1.4316.7004-2.5106 0-1.1066-.2335-1.9573-.7004-2.5521-.467-.5948-1.133-.8922-1.9982-.8922-.8515 0-1.5175.3112-1.9982.9337-.4669.6086-.7004 1.4593-.7004 2.5521 0 1.079.2335 1.9089.7004 2.4899.4807.581 1.1536.8714 2.0188.8714zM32.189 51.3099c.8927 0 1.6824.2351 2.369.7055.7004.4564 1.2429 1.1066 1.6274 1.9504.3983.8299.5974 1.7844.5974 2.8633 0 1.079-.1923 2.0265-.5768 2.8426-.3845.8161-.927 1.4455-1.6274 1.8882-.6866.4426-1.4832.6639-2.3896.6639-.7553 0-1.4282-.159-2.0187-.4772-.5906-.332-1.0438-.7884-1.3596-1.3694v6.1624h-2.5544V54.5467c0-1.1066-.0549-2.0956-.1648-2.9671h2.4102l.206 1.8052c.2746-.6501.721-1.155 1.339-1.5147.618-.3735 1.3321-.5602 2.1423-.5602zm-.7003 8.8805c.8651 0 1.5312-.2904 1.9981-.8714.467-.581.7004-1.4109.7004-2.4899 0-1.0928-.2334-1.9435-.7004-2.5521-.4669-.6225-1.1261-.9337-1.9775-.9337-.879 0-1.5519.2974-2.0188.8922-.467.5948-.7004 1.4455-.7004 2.5521 0 1.0928.2334 1.9366.7004 2.5314.4669.581 1.133.8714 1.9982.8714zM48.1357 56.9536H40.967c.0549 1.1205.3296 1.9504.824 2.4899.5081.5256 1.2565.7884 2.2453.7884 1.1399 0 2.1974-.3734 3.1724-1.1204l.7416 1.7844c-.4944.4012-1.1055.7262-1.8334.9752-.7141.2352-1.442.3527-2.1836.3527-1.7029 0-3.0419-.4841-4.0169-1.4524-.9751-.9683-1.4626-2.2962-1.4626-3.9838 0-1.0651.2129-2.0126.6386-2.8426.4257-.8299 1.0231-1.4732 1.7922-1.9296.769-.4704 1.6411-.7055 2.6161-.7055 1.4283 0 2.5544.4703 3.3784 1.4109.8377.9268 1.2566 2.2063 1.2566 3.8386v.3942zm-4.5732-3.7763c-.6866 0-1.2497.2075-1.6891.6225-.4258.4011-.7004.989-.824 1.7636h4.8409c-.0824-.7884-.3227-1.3832-.721-1.7844-.3845-.4011-.9201-.6017-1.6068-.6017zM60.3704 62.0579H57.301l-2.8016-3.5481-2.8016 3.5481h-3.0487l4.3671-5.3948-4.0993-5.0835h3.0487l2.5338 3.2576 2.5338-3.2576h3.0694l-4.0994 5.0835 4.3672 5.3948zM67.4943 51.3099c.8927 0 1.6824.2351 2.369.7055.7004.4564 1.2429 1.1066 1.6274 1.9504.3983.8299.5974 1.7844.5974 2.8633 0 1.079-.1923 2.0265-.5768 2.8426-.3845.8161-.927 1.4455-1.6274 1.8882-.6866.4426-1.4832.6639-2.3896.6639-.7553 0-1.4282-.159-2.0187-.4772-.5906-.332-1.0438-.7884-1.3596-1.3694v6.1624h-2.5544V54.5467c0-1.1066-.0549-2.0956-.1648-2.9671h2.4102l.206 1.8052c.2746-.6501.721-1.155 1.339-1.5147.618-.3735 1.3321-.5602 2.1423-.5602zm-.7004 8.8805c.8652 0 1.5313-.2904 1.9982-.8714.467-.581.7004-1.4109.7004-2.4899 0-1.0928-.2334-1.9435-.7004-2.5521-.4669-.6225-1.1261-.9337-1.9775-.9337-.879 0-1.5519.2974-2.0188.8922-.467.5948-.7004 1.4455-.7004 2.5521 0 1.0928.2334 1.9366.7004 2.5314.4669.581 1.133.8714 1.9981.8714zM79.0532 62.2238c-1.0574 0-1.9913-.2213-2.8015-.6639-.7966-.4427-1.4146-1.0721-1.854-1.8882-.4257-.8299-.6386-1.7982-.6386-2.9048 0-1.1066.2129-2.068.6386-2.8841.4394-.83 1.0574-1.4663 1.854-1.9089.8102-.4427 1.7441-.664 2.8015-.664 1.0438 0 1.9639.2213 2.7604.664.7965.4426 1.4077 1.0789 1.8334 1.9089.4394.8161.6592 1.7775.6592 2.8841s-.2198 2.0749-.6592 2.9048c-.4257.8161-1.0369 1.4455-1.8334 1.8882-.7965.4426-1.7166.6639-2.7604.6639zm-.0206-2.0334c.879 0 1.545-.2835 1.9982-.8507.4669-.5809.7004-1.4386.7004-2.5728 0-1.1205-.2335-1.9712-.7004-2.5522-.4669-.5948-1.1261-.8922-1.9776-.8922-.8652 0-1.5312.2974-1.9981.8922-.467.581-.7004 1.4317-.7004 2.5522 0 1.1342.2266 1.9919.6798 2.5728.4669.5672 1.1329.8507 1.9981.8507zM92.1299 51.3306c.3983 0 .7416.0554 1.03.166l-.0206 2.3654c-.4395-.1798-.8926-.2697-1.3596-.2697-.8789 0-1.5518.2559-2.0188.7677-.4532.5118-.6798 1.1896-.6798 2.0334v5.6645h-2.5543v-7.5112c0-1.1066-.055-2.0956-.1648-2.9671h2.4101l.206 1.8467c.261-.6778.673-1.1965 1.236-1.5562.5631-.3596 1.2017-.5395 1.9158-.5395zM98.8145 53.53v4.6893c0 1.2311.57 1.8467 1.7095 1.8467.316 0 .66-.0554 1.03-.166v2.0541c-.453.166-1.002.249-1.6477.249-1.181 0-2.0874-.332-2.7191-.996-.6318-.6639-.9476-1.6184-.9476-2.8633V53.53h-1.9982v-1.9504h1.9982v-2.5521l2.5749-.8714v3.4235h2.7605V53.53h-2.7605zM113.294 51.5796v10.4783h-2.534v-1.6807c-.315.581-.769 1.0374-1.359 1.3694-.591.3182-1.264.4772-2.019.4772-.906 0-1.71-.2213-2.41-.6639-.7-.4427-1.243-1.0721-1.627-1.8882-.385-.8161-.577-1.7636-.577-2.8426 0-1.0789.192-2.0334.577-2.8633.398-.8438.947-1.494 1.648-1.9504.7-.4704 1.496-.7055 2.389-.7055.755 0 1.428.166 2.019.498.59.3181 1.044.7677 1.359 1.3487v-1.577h2.534zm-5.211 8.6108c.851 0 1.51-.2974 1.977-.8922.467-.5948.7-1.4316.7-2.5106 0-1.1066-.233-1.9573-.7-2.5521-.467-.5948-1.133-.8922-1.998-.8922-.852 0-1.518.3112-1.998.9337-.467.6086-.701 1.4593-.701 2.5521 0 1.079.234 1.9089.701 2.4899.48.581 1.153.8714 2.019.8714zM116.099 46.7866h2.554v15.2713h-2.554V46.7866z"/>
  </g>
  <defs>
    <clipPath id="clip0">
      <path fill="#fff" d="M0 0h132v66H0z"/>
    </clipPath>
  </defs>
</svg>